HIERARCHY
ROOT Hips
{
	OFFSET 0.000000 0.000000 0.000000
	CHANNELS 6 Xposition Yposition Zposition Zrotation Yrotation Xrotation 
	JOINT LHipJoint
	{
		OFFSET 0.000000 0.000000 0.000000
		CHANNELS 3 Zrotation Yrotation Xrotation
		JOINT LeftUpLeg
		{
			OFFSET 1.363060 -1.794630 0.839290
			CHANNELS 3 Zrotation Yrotation Xrotation
			JOINT LeftLeg
			{
				OFFSET 2.448110 -6.726130 0.000000
				CHANNELS 3 Zrotation Yrotation Xrotation
				JOINT LeftFoot
				{
					OFFSET 2.562200 -7.039590 0.000000
					CHANNELS 3 Zrotation Yrotation Xrotation
					JOINT LeftToeBase
					{
						OFFSET 0.157640 -0.433110 2.322550
						CHANNELS 3 Zrotation Yrotation Xrotation
						End Site
						{
							OFFSET 0.000000 0.000000 0.000000
						}
					}
				}
			}
		}
	}
	JOINT RHipJoint
	{
		OFFSET 0.000000 0.000000 0.000000
		CHANNELS 3 Zrotation Yrotation Xrotation
		JOINT RightUpLeg
		{
			OFFSET -1.305520 -1.794630 0.839290
			CHANNELS 3 Zrotation Yrotation Xrotation
			JOINT RightLeg
			{
				OFFSET -2.542530 -6.985550 0.000000
				CHANNELS 3 Zrotation Yrotation Xrotation
				JOINT RightFoot
				{
					OFFSET -2.568260 -7.056230 0.000000
					CHANNELS 3 Zrotation Yrotation Xrotation
					JOINT RightToeBase
					{
						OFFSET -0.164730 -0.452590 2.363150
						CHANNELS 3 Zrotation Yrotation Xrotation
						End Site
						{
							OFFSET 0.000000 0.000000 0.000000
						}
					}
				}
			}
		}
	}
	JOINT LowerBack
	{
		OFFSET 0.000000 0.000000 0.000000
		CHANNELS 3 Zrotation Yrotation Xrotation
		JOINT Spine
		{
			OFFSET 0.028270 2.035590 -0.193380
			CHANNELS 3 Zrotation Yrotation Xrotation
			JOINT Spine1
			{
				OFFSET 0.056720 2.048850 -0.042750
				CHANNELS 3 Zrotation Yrotation Xrotation
				JOINT Neck
				{
					OFFSET 0.000000 0.000000 0.000000
					CHANNELS 3 Zrotation Yrotation Xrotation
					JOINT Neck1
					{
						OFFSET -0.054170 1.746240 0.172020
						CHANNELS 3 Zrotation Yrotation Xrotation
						JOINT Head
						{
							OFFSET 0.104070 1.761360 -0.123970
							CHANNELS 3 Zrotation Yrotation Xrotation
							End Site
							{
								OFFSET 0.000000 0.000000 0.000000
							}
						}
					}
				}
				JOINT LeftShoulder
				{
					OFFSET 0.000000 0.000000 0.000000
					CHANNELS 3 Zrotation Yrotation Xrotation
					JOINT LeftArm
					{
						OFFSET 3.362410 1.200890 -0.311210
						CHANNELS 3 Zrotation Yrotation Xrotation
						JOINT LeftForeArm
						{
							OFFSET 4.983000 -0.000000 -0.000000
							CHANNELS 3 Zrotation Yrotation Xrotation
							JOINT LeftHand
							{
								OFFSET 3.483560 -0.000000 -0.000000
								CHANNELS 3 Zrotation Yrotation Xrotation
								JOINT LeftFingerBase
								{
									OFFSET 0.000000 0.000000 0.000000
									CHANNELS 3 Zrotation Yrotation Xrotation
									JOINT LeftHandIndex1
									{
										OFFSET 0.715260 -0.000000 -0.000000
										CHANNELS 3 Zrotation Yrotation Xrotation
										End Site
										{
											OFFSET 0.000000 0.000000 0.000000
										}
									}
								}
								JOINT LThumb
								{
									OFFSET 0.000000 0.000000 0.000000
									CHANNELS 3 Zrotation Yrotation Xrotation
									End Site
									{
										OFFSET 0.000000 0.000000 0.000000
									}
								}
							}
						}
					}
				}
				JOINT RightShoulder
				{
					OFFSET 0.000000 0.000000 0.000000
					CHANNELS 3 Zrotation Yrotation Xrotation
					JOINT RightArm
					{
						OFFSET -3.136600 1.374050 -0.404650
						CHANNELS 3 Zrotation Yrotation Xrotation
						JOINT RightForeArm
						{
							OFFSET -5.241900 -0.000000 -0.000000
							CHANNELS 3 Zrotation Yrotation Xrotation
							JOINT RightHand
							{
								OFFSET -3.444170 -0.000000 -0.000000
								CHANNELS 3 Zrotation Yrotation Xrotation
								JOINT RightFingerBase
								{
									OFFSET 0.000000 0.000000 0.000000
									CHANNELS 3 Zrotation Yrotation Xrotation
									JOINT RightHandIndex1
									{
										OFFSET -0.622530 -0.000000 -0.000000
										CHANNELS 3 Zrotation Yrotation Xrotation
										End Site
										{
											OFFSET 0.000000 0.000000 0.000000
										}
									}
								}
								JOINT RThumb
								{
									OFFSET 0.000000 0.000000 0.000000
									CHANNELS 3 Zrotation Yrotation Xrotation
									End Site
									{
										OFFSET 0.000000 0.000000 0.000000
									}
								}
							}
						}
					}
				}
			}
		}
	}
}
MOTION
Frames: 7
Frame Time: 0.016667
0.091708 18.097251 0.091708 -1.132971 -13.666709 6.611123 -5.471513 22.248416 5.435332 -16.513254 -5.001172 -17.710163 -7.393065 -6.550449 -24.385277 3.032191 17.891832 38.559614 0.000000 0.000000 0.000000 6.413447 -38.278671 -7.383679 51.118310 17.816166 -13.464476 -45.336578 -5.056922 35.750359 11.363852 -26.736668 5.548486 0.000000 0.000000 0.000000 -3.168265 3.822848 8.682623 8.186260 3.576021 3.003095 -3.775459 4.640919 -11.071152 4.530607 -1.161882 -5.949619 -2.637518 -0.277789 1.530512 0.000000 0.000000 0.000000 -4.281381 15.523382 10.960951 -68.253212 -3.996639 8.509813 -168.410328 -89.219196 -179.645558 4.091189 -10.076954 0.175411 4.108676 -10.070195 0.000000 0.000000 0.000000 0.000000 0.000000 0.000000 0.000000 -2.754730 -10.697729 8.955970 63.026073 2.219237 22.383640 14.954497 79.887614 0.347210 -1.080945 11.189358 0.171396 -1.101262 11.191359 0.000000 0.000000 0.000000 0.000000 0.000000 0.000000 0.000000 
0.100190 18.126992 0.249713 -0.884930 -13.767315 6.471790 -5.170492 22.429504 5.490023 -17.152323 -5.016243 -17.332011 -7.258291 -6.227125 -23.263598 2.590491 16.896632 36.276826 0.000000 0.000000 0.000000 5.885755 -38.173204 -6.922962 50.387859 17.959649 -13.658866 -44.779746 -5.013301 36.556068 11.325053 -26.314918 5.218822 0.000000 0.000000 0.000000 -2.687827 3.746966 7.780612 6.769527 3.339824 5.027507 -3.279859 4.480983 -11.168517 4.996330 -1.196785 -6.854215 -2.728669 -0.281919 1.287422 0.000000 0.000000 0.000000 -3.850527 15.241284 10.679306 -68.622826 -4.551467 7.549878 -167.446391 -88.845854 -179.682349 4.388425 -10.158403 0.156712 4.410673 -10.149259 0.000000 0.000000 0.000000 0.000000 0.000000 0.000000 0.000000 -3.242552 -10.371249 8.985287 63.886458 2.836422 21.451725 16.171462 78.306545 0.361674 -0.950089 11.577815 0.178519 -0.970567 11.580257 0.000000 0.000000 0.000000 0.000000 0.000000 0.000000 0.000000 
0.110912 18.158552 0.407134 -0.635096 -13.850800 6.330677 -4.914369 22.594074 5.532778 -17.739140 -5.036436 -16.994214 -7.132188 -5.875281 -22.070245 2.194339 15.904723 34.014997 0.000000 0.000000 0.000000 5.368011 -38.043624 -6.447294 49.618264 18.099353 -13.886572 -44.209667 -5.001705 37.314402 11.252870 -25.920440 4.971023 0.000000 0.000000 0.000000 -2.165958 3.687260 6.865886 5.289834 3.147461 7.047049 -2.771614 4.315139 -11.227401 5.463016 -1.220964 -7.727591 -2.801785 -0.284923 1.032828 0.000000 0.000000 0.000000 -3.368442 14.940468 10.400722 -69.003193 -5.117165 6.566850 -166.485189 -88.475158 -179.720473 4.688845 -10.232122 0.137329 4.715982 -10.220441 0.000000 0.000000 0.000000 0.000000 0.000000 0.000000 0.000000 -3.766867 -10.049427 8.996658 64.780677 3.479174 20.461151 17.382308 76.647486 0.376027 -0.817930 11.960212 0.185598 -0.838368 11.963091 0.000000 0.000000 0.000000 0.000000 0.000000 0.000000 0.000000 
0.122560 18.190576 0.562293 -0.475091 -13.635306 6.028838 -4.251365 22.995967 5.537173 -18.580560 -5.224090 -16.704498 -7.272231 -5.305748 -19.966107 1.762492 14.528999 31.177576 0.000000 0.000000 0.000000 4.534061 -38.100974 -6.480761 48.952631 16.985137 -13.422506 -43.143859 -5.509874 37.463173 10.986675 -25.013235 3.790540 0.000000 0.000000 0.000000 -1.791303 3.610975 6.507496 4.538693 2.987123 8.378111 -2.702351 4.165277 -11.473987 5.662307 -1.200951 -8.194998 -2.694930 -0.275736 0.927901 0.000000 0.000000 0.000000 -3.203899 14.887711 10.159823 -69.027963 -5.365470 6.467426 -166.266332 -88.416030 -179.723438 4.735142 -10.226554 0.135827 4.762607 -10.214591 0.000000 0.000000 0.000000 0.000000 0.000000 0.000000 0.000000 -4.124617 -10.043872 9.050655 65.444012 3.797683 19.735746 18.400819 75.215474 0.386160 -0.693210 12.215930 0.190632 -0.713099 12.219186 0.000000 0.000000 0.000000 0.000000 0.000000 0.000000 0.000000 
0.135830 18.223559 0.716090 -0.330230 -13.377438 5.716761 -3.640683 23.388238 5.539796 -19.340460 -5.437706 -16.480174 -7.377374 -4.694533 -17.754780 1.386209 13.177169 28.422273 0.000000 0.000000 0.000000 3.714412 -38.087787 -6.527629 48.211239 15.816460 -12.953702 -42.027364 -6.085889 37.554458 10.676333 -24.141338 2.644871 0.000000 0.000000 0.000000 -1.392011 3.521644 6.154345 3.779109 2.827490 9.705822 -2.620745 3.997597 -11.684776 5.863860 -1.178781 -8.660927 -2.590933 -0.266325 0.816818 0.000000 0.000000 0.000000 -3.018717 14.799091 9.938596 -69.083548 -5.603454 6.323288 -166.018065 -88.349779 -179.727283 4.789253 -10.225443 0.133876 4.817166 -10.213130 0.000000 0.000000 0.000000 0.000000 0.000000 0.000000 0.000000 -4.494339 -10.036714 9.091286 66.113270 4.143700 18.966658 19.395632 73.729258 0.395691 -0.571118 12.462288 0.195375 -0.590355 12.465894 0.000000 0.000000 0.000000 0.000000 0.000000 0.000000 0.000000 
0.185672 18.281882 0.903873 -0.242973 -13.649331 5.550793 -4.083803 23.559744 6.014300 -19.069225 -5.566904 -16.745563 -7.114582 -4.317172 -16.716567 1.117794 12.440966 26.539995 0.000000 0.000000 0.000000 2.743018 -37.920302 -5.884825 47.305786 15.168444 -13.013525 -40.686861 -6.633741 37.560307 10.079985 -23.154784 2.129871 0.000000 0.000000 0.000000 0.132234 3.623894 4.605913 1.898007 2.840057 12.814096 -2.354485 3.888440 -12.576396 5.719418 -1.178920 -8.763329 -2.693680 -0.271372 0.729370 0.000000 0.000000 0.000000 -3.229661 14.555946 9.884215 -68.915774 -5.520144 6.719762 -166.421975 -88.691906 -179.726540 4.880088 -10.487447 0.134005 4.910696 -10.474039 0.000000 0.000000 0.000000 0.000000 0.000000 0.000000 0.000000 -3.965694 -10.272363 8.638115 65.806686 4.204376 19.370140 18.466375 74.738077 0.395377 -0.711725 12.419563 0.195172 -0.731905 12.422830 0.000000 0.000000 0.000000 0.000000 0.000000 0.000000 0.000000 
0.237474 18.340675 1.090788 -0.108982 -13.858744 5.494054 -4.674444 23.633034 6.400239 -18.723804 -5.707610 -17.099057 -6.866363 -3.919341 -15.666363 0.883226 11.750287 24.744566 0.000000 0.000000 0.000000 1.845949 -37.677210 -5.312118 46.299212 14.566696 -13.210278 -39.294103 -7.229030 37.562372 9.473388 -22.228738 1.649364 0.000000 0.000000 0.000000 1.784016 3.832438 3.354558 -0.378872 2.997427 15.210776 -1.986494 3.764913 -13.204372 5.314034 -1.067297 -8.393665 -2.335163 -0.233095 0.533049 0.000000 0.000000 0.000000 -3.252447 14.244563 9.866242 -68.768246 -5.477840 7.229780 -166.976409 -89.068110 -179.724570 4.945094 -10.755516 0.134735 4.978435 -10.741119 0.000000 0.000000 0.000000 0.000000 0.000000 0.000000 0.000000 -3.251660 -10.680860 8.133389 65.420308 4.213479 19.821443 17.599471 75.760021 0.394646 -0.836620 12.379158 0.194755 -0.857742 12.382108 0.000000 0.000000 0.000000 0.000000 0.000000 0.000000 0.000000 
